<svg xmlns="http://www.w3.org/2000/svg" xmlns:xlink="http://www.w3.org/1999/xlink" width="210" zoomAndPan="magnify" viewBox="0 0 157.5 157.499993" height="210" preserveAspectRatio="xMidYMid meet" version="1.0"><path fill="#ffffff" d="M 45.445312 77.230469 L 44.261719 77.230469 C 43.792969 82.054688 43.128906 87.917969 34.804688 87.917969 L 30.972656 87.917969 C 28.753906 87.917969 28.65625 87.585938 28.65625 86.023438 L 28.65625 60.914062 C 28.65625 59.308594 28.65625 58.644531 33.101562 58.644531 L 34.664062 58.644531 L 34.664062 57.226562 C 32.960938 57.371094 28.703125 57.371094 26.765625 57.371094 C 24.921875 57.371094 21.230469 57.371094 19.625 57.226562 L 19.625 58.644531 L 20.710938 58.644531 C 24.355469 58.644531 24.449219 59.164062 24.449219 60.867188 L 24.449219 85.695312 C 24.449219 87.394531 24.355469 87.917969 20.710938 87.917969 L 19.625 87.917969 L 19.625 89.382812 L 44.167969 89.382812 Z M 45.445312 77.230469 " fill-opacity="1" fill-rule="nonzero"/><path fill="#ffffff" d="M 44.640625 57.179688 C 44.449219 56.613281 44.359375 56.421875 43.742188 56.421875 C 43.128906 56.421875 42.988281 56.613281 42.796875 57.179688 L 35.183594 76.472656 C 34.851562 77.277344 34.285156 78.742188 31.355469 78.742188 L 31.355469 79.925781 L 38.683594 79.925781 L 38.683594 78.742188 C 37.214844 78.742188 36.320312 78.082031 36.320312 77.132812 C 36.320312 76.898438 36.367188 76.804688 36.460938 76.472656 L 38.066406 72.40625 L 47.433594 72.40625 L 49.324219 77.230469 C 49.421875 77.40625 49.484375 77.597656 49.511719 77.796875 C 49.511719 78.742188 47.714844 78.742188 46.816406 78.742188 L 46.816406 79.925781 L 56.132812 79.925781 L 56.132812 78.742188 L 55.46875 78.742188 C 53.25 78.742188 53.011719 78.414062 52.679688 77.46875 Z M 42.75 60.539062 L 46.957031 71.226562 L 38.542969 71.226562 L 42.75 60.535156 Z M 42.75 60.539062 " fill-opacity="1" fill-rule="nonzero"/><path fill="#ffffff" d="M 82.523438 57.507812 L 53.722656 57.507812 L 52.871094 68.101562 L 54.007812 68.101562 C 54.667969 60.488281 55.375 58.925781 62.519531 58.925781 C 63.367188 58.925781 64.597656 58.925781 65.070312 59.023438 C 66.0625 59.210938 66.0625 59.730469 66.0625 60.820312 L 66.0625 85.648438 C 66.0625 87.257812 66.0625 87.917969 61.097656 87.917969 L 59.207031 87.917969 L 59.207031 89.382812 C 61.144531 89.242188 65.921875 89.242188 68.097656 89.242188 C 70.273438 89.242188 75.140625 89.242188 77.082031 89.382812 L 77.082031 87.917969 L 75.191406 87.917969 C 70.226562 87.917969 70.226562 87.257812 70.226562 85.648438 L 70.226562 60.820312 C 70.226562 59.875 70.226562 59.210938 71.078125 59.023438 C 71.597656 58.929688 72.875 58.929688 73.769531 58.929688 C 80.867188 58.929688 81.574219 60.488281 82.234375 68.105469 L 83.417969 68.105469 Z M 82.523438 57.507812 " fill-opacity="1" fill-rule="nonzero"/><path fill="#ffffff" d="M 107.867188 87.871094 L 106.683594 87.871094 C 105.503906 95.105469 104.414062 98.558594 96.332031 98.558594 L 90.085938 98.558594 C 87.863281 98.558594 87.769531 98.226562 87.769531 96.667969 L 87.769531 84.085938 L 91.976562 84.085938 C 96.566406 84.085938 97.085938 85.601562 97.085938 89.617188 L 98.269531 89.617188 L 98.269531 77.132812 L 97.085938 77.132812 C 97.085938 81.15625 96.566406 82.621094 91.976562 82.621094 L 87.769531 82.621094 L 87.769531 71.316406 C 87.769531 69.757812 87.863281 69.429688 90.085938 69.429688 L 96.140625 69.429688 C 103.375 69.429688 104.605469 72.03125 105.363281 78.601562 L 106.542969 78.601562 L 105.21875 68.007812 L 78.738281 68.007812 L 78.738281 69.425781 L 79.828125 69.425781 C 83.46875 69.425781 83.5625 69.945312 83.5625 71.648438 L 83.5625 96.335938 C 83.5625 98.039062 83.46875 98.558594 79.828125 98.558594 L 78.738281 98.558594 L 78.738281 100.023438 L 105.882812 100.023438 L 107.871094 87.871094 Z M 107.867188 87.871094 " fill-opacity="1" fill-rule="nonzero"/><path fill="#ffffff" d="M 122.101562 71.175781 L 128.578125 61.71875 C 129.574219 60.207031 131.179688 58.691406 135.390625 58.644531 L 135.390625 57.226562 L 124.132812 57.226562 L 124.132812 58.644531 C 126.027344 58.695312 127.066406 59.730469 127.066406 60.820312 C 127.066406 61.292969 126.972656 61.386719 126.640625 61.90625 L 121.25 69.851562 L 115.199219 60.773438 C 115.101562 60.632812 114.867188 60.25 114.867188 60.0625 C 114.867188 59.496094 115.90625 58.691406 117.894531 58.644531 L 117.894531 57.226562 C 116.285156 57.371094 112.832031 57.371094 111.035156 57.371094 C 109.570312 57.371094 106.636719 57.320312 104.890625 57.226562 L 104.890625 58.644531 L 105.789062 58.644531 C 108.386719 58.644531 109.285156 58.976562 110.1875 60.300781 L 118.839844 73.402344 L 111.128906 84.796875 C 110.46875 85.742188 109.050781 87.917969 104.320312 87.917969 L 104.320312 89.382812 L 115.574219 89.382812 L 115.574219 87.917969 C 113.402344 87.871094 112.597656 86.59375 112.597656 85.742188 C 112.597656 85.316406 112.738281 85.128906 113.070312 84.605469 L 119.738281 74.722656 L 127.207031 85.976562 C 127.304688 86.167969 127.445312 86.355469 127.445312 86.5 C 127.445312 87.066406 126.40625 87.871094 124.371094 87.917969 L 124.371094 89.382812 C 126.027344 89.242188 129.480469 89.242188 131.230469 89.242188 C 133.214844 89.242188 135.390625 89.289062 137.375 89.382812 L 137.375 87.917969 L 136.480469 87.917969 C 134.019531 87.917969 133.027344 87.679688 132.035156 86.214844 L 122.101562 71.179688 Z M 122.101562 71.175781 " fill-opacity="1" fill-rule="nonzero"/></svg>