<svg xmlns="http://www.w3.org/2000/svg" xmlns:xlink="http://www.w3.org/1999/xlink" width="266" zoomAndPan="magnify" viewBox="0 0 199.5 233.999995" height="312" preserveAspectRatio="xMidYMid meet" version="1.0"><path fill="#ffffff" d="M 96.253906 59.601562 C 96.253906 60.351562 95.507812 60.351562 95.507812 60.351562 L 94.757812 60.351562 C 94.011719 60.351562 94.011719 59.601562 93.261719 58.855469 C 93.261719 58.855469 92.515625 58.105469 92.515625 57.359375 C 92.515625 56.609375 92.515625 56.609375 93.261719 56.609375 L 94.757812 57.359375 C 95.507812 58.105469 96.253906 58.855469 96.253906 59.601562 M 82.789062 52.121094 C 82.789062 48.382812 81.292969 46.136719 79.046875 46.136719 C 79.046875 46.136719 79.046875 46.886719 78.300781 46.886719 L 78.300781 48.382812 L 80.542969 48.382812 C 80.542969 49.878906 81.292969 50.625 81.292969 52.121094 L 82.789062 52.121094 M 108.972656 48.382812 C 110.46875 48.382812 111.21875 49.878906 111.964844 52.121094 L 113.460938 52.121094 C 112.714844 51.375 112.714844 50.625 112.714844 49.878906 C 112.714844 49.128906 112.714844 48.382812 111.964844 47.632812 C 111.21875 46.886719 110.46875 46.136719 109.722656 46.136719 C 109.722656 46.136719 108.972656 46.886719 108.226562 46.886719 C 108.226562 47.632812 108.972656 47.632812 108.972656 48.382812 M 86.527344 60.351562 C 85.78125 60.351562 85.78125 60.351562 85.78125 59.601562 C 85.78125 58.855469 85.78125 58.105469 86.527344 57.359375 C 88.023438 57.359375 88.773438 56.609375 88.773438 56.609375 C 89.523438 56.609375 89.523438 57.359375 89.523438 57.359375 C 89.523438 58.105469 88.773438 58.855469 87.277344 60.351562 L 86.527344 60.351562 M 78.300781 59.601562 C 75.308594 58.105469 74.558594 55.863281 74.558594 52.121094 C 74.558594 49.878906 74.558594 48.382812 76.054688 46.886719 C 76.804688 45.390625 78.300781 44.640625 79.796875 44.640625 C 81.292969 44.640625 82.039062 45.390625 83.535156 46.886719 C 84.285156 49.128906 85.03125 51.375 85.03125 53.617188 L 85.03125 55.113281 L 85.78125 55.113281 L 85.78125 54.367188 C 86.527344 54.367188 86.527344 52.871094 86.527344 49.878906 C 86.527344 47.632812 86.527344 45.390625 85.03125 43.144531 C 83.535156 40.898438 82.039062 39.402344 79.046875 39.402344 C 76.804688 39.402344 74.558594 40.898438 73.8125 43.144531 C 72.316406 46.136719 72.015625 48.382812 72.015625 52.121094 C 72.015625 55.113281 73.0625 58.105469 76.054688 61.097656 C 76.804688 60.351562 77.550781 60.351562 78.300781 59.601562 M 171.816406 165.089844 C 172.5625 165.089844 172.5625 164.789062 172.5625 164.117188 C 172.5625 162.46875 171.816406 160.523438 169.570312 158.355469 C 167.328125 156.113281 163.585938 154.691406 159.097656 154.089844 C 158.347656 154.015625 157.601562 154.015625 157.601562 154.015625 C 156.851562 153.867188 156.851562 153.867188 156.105469 153.867188 C 155.355469 153.792969 153.859375 153.644531 153.113281 153.492188 C 155.355469 146.535156 156.105469 140.402344 156.105469 135.015625 C 156.105469 127.53125 154.609375 122.296875 151.617188 117.808594 C 148.625 113.320312 145.632812 111.074219 141.890625 110.328125 C 141.140625 111.074219 141.140625 111.074219 141.140625 111.824219 C 144.882812 113.320312 148.625 116.3125 150.867188 120.800781 C 153.113281 126.035156 153.859375 130.527344 153.859375 135.761719 C 153.859375 139.953125 153.113281 146.160156 150.121094 154.089844 C 147.128906 155.289062 144.132812 158.054688 141.890625 162.394531 C 141.890625 163.070312 141.890625 163.441406 142.636719 163.441406 C 142.636719 163.441406 143.386719 162.769531 144.132812 161.496094 C 145.632812 160.226562 146.378906 158.953125 147.875 157.683594 C 150.121094 156.410156 151.617188 155.738281 153.859375 155.738281 C 157.601562 155.738281 161.339844 156.261719 163.585938 157.308594 C 166.578125 158.28125 168.074219 159.328125 168.824219 160.523438 C 169.570312 161.648438 170.320312 162.695312 171.066406 163.667969 C 171.066406 164.640625 171.816406 165.089844 171.816406 165.089844 M 102.988281 56.609375 C 102.238281 55.863281 102.238281 54.367188 102.238281 52.871094 C 102.238281 49.878906 102.238281 48.382812 103.734375 46.136719 C 105.230469 44.640625 106.726562 43.894531 108.226562 43.894531 C 110.46875 43.894531 111.964844 45.390625 113.460938 46.886719 C 114.210938 49.128906 114.957031 50.625 114.957031 52.871094 C 114.957031 56.609375 113.460938 58.855469 110.46875 59.601562 C 110.46875 59.601562 111.21875 60.351562 111.964844 60.351562 C 113.460938 60.351562 114.210938 61.097656 115.707031 61.847656 C 116.453125 57.359375 117.203125 54.367188 117.203125 50.625 C 117.203125 46.136719 116.453125 43.144531 114.957031 40.898438 C 112.714844 38.65625 110.46875 37.90625 107.476562 37.90625 C 105.230469 37.90625 102.988281 38.65625 100.742188 40.152344 C 99.246094 42.394531 98.5 43.894531 98.5 46.136719 C 98.5 49.878906 99.246094 52.871094 100.742188 55.863281 C 101.492188 55.863281 102.238281 56.609375 102.988281 56.609375 M 111.964844 68.582031 C 102.238281 75.3125 94.757812 78.304688 88.773438 78.304688 C 83.535156 78.304688 78.300781 76.0625 73.8125 72.320312 C 74.558594 73.816406 75.308594 75.3125 76.054688 76.0625 L 80.542969 80.550781 C 83.535156 83.542969 87.277344 85.039062 91.019531 85.039062 C 96.253906 85.039062 102.238281 82.046875 109.722656 76.808594 L 116.453125 72.320312 C 117.949219 70.824219 119.445312 69.328125 119.445312 67.085938 C 119.445312 66.335938 119.445312 65.589844 118.699219 65.589844 C 117.949219 64.09375 114.210938 61.847656 106.726562 59.601562 C 99.996094 56.609375 94.757812 55.113281 91.765625 55.113281 C 89.523438 55.113281 85.78125 56.609375 80.542969 59.601562 C 76.054688 62.597656 73.0625 65.589844 73.0625 68.582031 C 73.0625 68.582031 73.8125 69.328125 74.558594 70.824219 C 79.046875 74.566406 83.535156 76.808594 88.023438 76.808594 C 94.011719 76.808594 101.492188 73.816406 111.21875 66.335938 L 111.21875 67.832031 C 111.964844 67.832031 111.964844 68.582031 111.964844 68.582031 M 129.171875 219.703125 C 132.164062 225.328125 137.402344 228.15625 143.386719 228.15625 C 144.882812 228.15625 146.378906 227.929688 147.875 227.484375 C 149.371094 227.183594 150.867188 226.660156 151.617188 226.0625 C 152.363281 225.539062 153.113281 225.015625 153.859375 224.414062 C 155.355469 223.890625 155.355469 223.515625 156.105469 223.144531 L 168.824219 212.144531 C 171.816406 209.757812 174.808594 207.671875 178.546875 205.863281 C 181.539062 204.066406 184.535156 202.871094 186.03125 202.195312 C 188.273438 201.597656 189.769531 200.699219 191.265625 199.503906 C 192.015625 198.378906 192.761719 196.960938 192.761719 195.164062 C 192.761719 192.992188 191.265625 191.347656 189.769531 190.152344 C 188.273438 188.953125 186.777344 188.132812 185.28125 187.609375 C 183.785156 187.082031 182.289062 185.886719 180.042969 183.867188 C 178.546875 181.921875 177.050781 179.226562 176.304688 175.710938 L 175.554688 171.375 C 174.808594 169.351562 174.808594 167.855469 174.058594 167.035156 C 174.058594 166.808594 174.058594 166.734375 173.3125 166.734375 C 172.5625 166.734375 171.066406 167.40625 170.320312 168.679688 C 168.824219 169.953125 167.328125 171.375 165.832031 172.871094 C 165.082031 174.367188 162.835938 175.710938 161.339844 176.984375 C 159.097656 178.257812 156.851562 178.929688 155.355469 178.929688 C 149.371094 178.929688 146.378906 177.285156 144.132812 174.066406 C 142.636719 171.671875 141.890625 168.90625 141.140625 165.761719 C 139.644531 164.492188 138.898438 163.816406 137.402344 163.816406 C 133.660156 163.816406 132.164062 167.707031 132.164062 175.5625 L 132.164062 198.828125 C 132.164062 199.503906 131.417969 201 131.417969 203.316406 C 130.667969 205.636719 130.667969 208.269531 130.667969 211.25 L 129.171875 219.550781 L 129.171875 219.679688 M 20.695312 215.722656 C 27.652344 216.738281 35.65625 218.917969 44.707031 222.238281 C 53.761719 225.53125 59.296875 227.25 61.316406 227.25 C 66.554688 227.25 70.894531 224.929688 74.484375 220.449219 C 75.230469 219 75.230469 217.292969 75.230469 215.332031 C 75.230469 208.261719 70.96875 199.324219 62.4375 188.476562 L 57.351562 181.667969 C 56.304688 180.246094 55.03125 178.078125 53.386719 175.160156 C 51.816406 172.242188 50.394531 169.996094 49.273438 168.425781 C 48.300781 166.703125 46.730469 164.984375 44.707031 163.261719 C 42.765625 161.542969 40.519531 160.421875 38.050781 159.820312 C 34.910156 160.421875 32.738281 161.46875 31.691406 162.890625 C 30.644531 164.3125 30.046875 165.882812 29.894531 167.527344 C 29.671875 169.097656 29.222656 170.144531 28.472656 170.671875 C 27.726562 171.117188 26.453125 171.492188 24.734375 171.867188 C 24.359375 171.867188 23.6875 171.867188 22.714844 171.941406 L 20.695312 171.941406 C 16.730469 171.941406 14.035156 172.390625 12.613281 173.140625 C 10.742188 175.308594 9.769531 177.777344 9.769531 180.394531 C 9.769531 181.59375 10.070312 183.613281 10.667969 186.457031 C 11.269531 189.222656 11.566406 191.46875 11.566406 193.039062 C 11.566406 196.105469 10.667969 199.171875 8.800781 202.242188 C 6.929688 205.457031 5.957031 207.851562 5.957031 209.558594 C 6.703125 212.460938 11.640625 214.503906 20.695312 215.699219 M 45.605469 147.695312 C 45.605469 142.53125 46.953125 136.847656 49.722656 130.113281 C 52.414062 123.382812 55.109375 118.890625 57.726562 115.898438 C 57.578125 115.152344 57.203125 115.152344 56.605469 115.152344 L 55.855469 114.402344 C 53.6875 116.648438 51.066406 121.882812 47.925781 129.367188 C 44.785156 136.097656 43.136719 142.308594 43.136719 146.871094 C 43.136719 150.238281 43.960938 153.15625 45.457031 155.699219 C 47.101562 158.167969 51.066406 161.761719 57.351562 166.324219 L 65.28125 171.484375 C 73.734375 178.816406 78.226562 183.90625 78.226562 186.898438 C 78.226562 188.46875 77.476562 190.039062 75.230469 191.757812 C 73.734375 193.554688 71.714844 194.453125 69.996094 194.453125 C 69.847656 194.453125 69.769531 194.601562 69.769531 194.976562 C 69.769531 195.050781 70.519531 196.546875 72.089844 199.464844 C 75.230469 203.730469 81.964844 205.824219 90.941406 205.824219 C 107.402344 205.824219 120.121094 199.089844 129.84375 185.625 C 129.84375 181.882812 129.84375 179.566406 129.097656 178.59375 L 129.097656 175.824219 C 129.097656 170.960938 129.84375 167.296875 131.339844 164.902344 C 132.839844 162.507812 134.335938 161.386719 136.578125 161.386719 C 138.074219 161.386719 139.570312 161.910156 141.066406 163.03125 C 141.816406 157.269531 141.816406 152.257812 141.816406 147.769531 C 141.816406 140.960938 141.816406 135.351562 140.320312 130.113281 C 139.570312 125.625 138.074219 121.882812 136.578125 118.890625 L 132.089844 112.160156 C 130.59375 109.914062 129.84375 107.671875 128.347656 105.425781 C 127.601562 102.433594 126.851562 100.1875 126.851562 96.449219 C 124.609375 92.707031 123.113281 88.96875 120.867188 85.226562 C 119.371094 81.484375 117.875 77.746094 116.378906 74.753906 L 109.644531 79.988281 C 102.164062 85.226562 96.179688 87.472656 90.941406 87.472656 C 86.453125 87.472656 82.714844 86.722656 80.46875 83.730469 L 75.980469 79.988281 C 75.980469 82.234375 75.230469 85.226562 73.734375 88.21875 L 69.023438 97.195312 C 66.929688 102.433594 65.804688 105.425781 65.582031 107.671875 C 65.28125 109.167969 65.058594 110.664062 64.910156 110.664062 L 59.296875 121.882812 C 53.238281 133.105469 50.171875 143.503906 50.171875 152.109375 C 50.171875 153.828125 50.320312 155.625 50.617188 157.421875 C 47.253906 155.101562 45.605469 151.882812 45.605469 147.695312 M 99.171875 218.46875 C 89.445312 218.46875 81.964844 219.785156 76.730469 222.394531 L 76.730469 222.171875 C 72.988281 226.660156 68.796875 228.980469 62.964844 228.980469 C 59.296875 228.980469 53.535156 227.558594 45.757812 224.714844 C 37.902344 222.019531 30.945312 219.957031 24.882812 218.59375 C 24.285156 218.421875 22.9375 218.167969 20.769531 217.824219 C 18.675781 217.488281 16.730469 217.144531 15.007812 216.800781 C 13.4375 216.460938 11.640625 215.953125 9.695312 215.265625 C 7.828125 214.675781 6.328125 213.902344 5.207031 212.96875 C 4.175781 212.027344 3.667969 210.964844 3.667969 209.773438 C 3.667969 208.578125 3.921875 207.296875 4.429688 205.9375 C 4.910156 205.113281 5.433594 204.289062 5.957031 203.542969 C 6.480469 202.71875 6.929688 201.972656 7.226562 201.222656 C 7.675781 200.550781 7.976562 199.875 8.273438 199.128906 C 8.574219 198.457031 8.875 197.78125 9.023438 196.960938 C 9.171875 196.210938 9.324219 195.460938 9.324219 194.714844 C 9.324219 193.964844 9.023438 191.722656 8.425781 187.757812 C 7.828125 183.867188 7.527344 181.398438 7.527344 180.351562 C 7.527344 177.058594 8.273438 174.441406 9.921875 172.570312 C 11.566406 170.699219 13.136719 169.726562 14.785156 169.726562 L 23.386719 169.726562 C 24.0625 169.726562 25.109375 169.351562 26.679688 168.457031 C 27.203125 167.257812 27.652344 166.285156 27.949219 165.386719 C 28.324219 164.492188 28.472656 163.816406 28.625 163.519531 C 28.773438 163.070312 28.921875 162.621094 29.074219 162.246094 C 29.371094 161.722656 29.746094 161.125 30.269531 160.527344 C 29.671875 159.777344 29.371094 158.804688 29.371094 157.609375 C 29.371094 156.785156 29.371094 156.035156 29.523438 155.585938 C 29.523438 152.894531 30.792969 149.078125 33.488281 144.066406 L 36.105469 139.355469 C 38.273438 135.3125 39.921875 132.320312 41.117188 129.328125 C 42.390625 126.335938 43.734375 121.847656 45.234375 115.863281 C 46.429688 110.625 49.273438 105.386719 53.761719 100.152344 L 59.371094 93.417969 C 63.261719 88.929688 65.804688 85.1875 67.226562 82.195312 C 68.648438 79.203125 69.398438 75.464844 69.398438 72.472656 C 69.398438 70.976562 69.023438 66.484375 68.199219 59.003906 C 67.453125 51.523438 67.078125 44.042969 67.078125 37.308594 C 67.078125 32.074219 67.527344 28.332031 68.5 24.589844 C 69.472656 20.851562 71.191406 17.109375 73.734375 14.117188 C 75.980469 11.125 78.972656 8.132812 83.460938 6.636719 C 87.949219 5.140625 93.1875 4.390625 99.171875 4.390625 C 101.417969 4.390625 103.660156 4.390625 105.90625 5.140625 C 108.148438 5.140625 111.140625 5.886719 114.882812 7.382812 C 117.875 8.878906 120.867188 10.375 123.113281 12.621094 C 126.105469 14.867188 128.347656 18.605469 130.59375 22.347656 C 132.089844 26.835938 133.585938 31.324219 134.335938 37.308594 C 135.082031 41.050781 135.082031 44.789062 135.832031 50.027344 C 135.832031 54.515625 136.578125 57.507812 136.578125 59.753906 C 137.328125 61.996094 137.328125 64.988281 138.074219 68.730469 C 138.824219 71.722656 139.570312 74.714844 141.066406 76.960938 C 142.5625 79.953125 144.058594 82.945312 146.304688 85.9375 C 148.546875 89.679688 151.542969 93.417969 154.535156 97.90625 C 161.265625 105.386719 166.503906 113.617188 169.496094 121.847656 C 173.238281 129.328125 175.480469 139.054688 175.480469 149.453125 C 175.480469 154.617188 174.734375 159.628906 173.238281 164.492188 C 174.734375 164.492188 175.480469 165.089844 176.230469 166.136719 C 176.976562 167.183594 177.726562 169.429688 178.472656 172.945312 L 179.222656 178.480469 C 179.96875 180.125 180.71875 181.699219 182.960938 183.042969 C 184.457031 184.390625 185.953125 185.511719 188.199219 186.410156 C 189.695312 187.160156 191.941406 188.207031 193.4375 189.550781 C 194.933594 191.050781 195.679688 192.621094 195.679688 194.265625 C 195.679688 196.808594 194.933594 198.679688 193.4375 200.027344 C 191.941406 201.523438 190.445312 202.570312 188.199219 203.242188 C 186.703125 203.992188 183.710938 205.488281 179.222656 207.597656 C 175.480469 209.8125 171.742188 212.496094 168 215.675781 L 160.519531 222.042969 C 157.527344 224.960938 154.535156 227.054688 152.289062 228.328125 C 150.042969 229.675781 147.050781 230.347656 144.058594 230.347656 L 138.824219 229.75 C 132.839844 228.179688 129.097656 225.1875 126.851562 220.621094 C 114.882812 219.171875 105.15625 218.453125 99.171875 218.453125 " fill-opacity="1" fill-rule="nonzero"/></svg>