<svg xmlns="http://www.w3.org/2000/svg" xmlns:xlink="http://www.w3.org/1999/xlink" width="210" zoomAndPan="magnify" viewBox="0 0 157.5 157.499993" height="210" preserveAspectRatio="xMidYMid meet" version="1.0"><path fill="#130754" d="M 59.59375 20.078125 L 74.074219 20.078125 L 74.074219 50.230469 L 59.59375 50.230469 Z M 59.59375 20.078125 " fill-opacity="1" fill-rule="nonzero"/><path fill="#130754" d="M 59.59375 82.015625 L 74.074219 82.015625 L 74.074219 112.167969 L 59.59375 112.167969 Z M 59.59375 82.015625 " fill-opacity="1" fill-rule="nonzero"/><path fill="#ffca00" d="M 59.59375 59.03125 L 74.074219 59.03125 L 74.074219 73.257812 L 59.59375 73.257812 Z M 59.59375 59.03125 " fill-opacity="1" fill-rule="nonzero"/><path fill="#130754" d="M 36.332031 44.863281 L 50.8125 44.863281 L 50.8125 145.09375 L 36.332031 145.09375 Z M 36.332031 44.863281 " fill-opacity="1" fill-rule="nonzero"/><path fill="#130754" d="M 82.375 106.894531 L 96.855469 106.894531 L 96.855469 137.046875 L 82.375 137.046875 Z M 82.375 106.894531 " fill-opacity="1" fill-rule="nonzero"/><path fill="#130754" d="M 82.375 44.902344 L 96.855469 44.902344 L 96.855469 75.054688 L 82.375 75.054688 Z M 82.375 44.902344 " fill-opacity="1" fill-rule="nonzero"/><path fill="#e70488" d="M 82.375 83.859375 L 96.855469 83.859375 L 96.855469 98.085938 L 82.375 98.085938 Z M 82.375 83.859375 " fill-opacity="1" fill-rule="nonzero"/><path fill="#130754" d="M 105.148438 12.222656 L 119.628906 12.222656 L 119.628906 112.453125 L 105.148438 112.453125 Z M 105.148438 12.222656 " fill-opacity="1" fill-rule="nonzero"/></svg>